# xmcd
#
# Track frame offsets: 
#        150
#        11595
#        29191
#        48486
#        62724
#        78724
#        94118
#        106224
#        123527
#        144417
#
# Disc length: 2123 seconds
#
# Revision: 2
# Processed by: cddbd v1.5.2PL0 Copyright (c) Steve Scherf et al.
# Submitted via: ExactAudioCopyFreeDBPlugin 1.0
#
DISCID=8a08490a
DTITLE=Dolly Parton - 1996 - I Will Always Love You and Other Greatest H
DTITLE=its
DYEAR=1996
DGENRE=Country
TTITLE0=Why'd You Come In Here Lookin' Like That
TTITLE1=Yellow Roses
TTITLE2=White Limozeen
TTITLE3=Eagle When She Flies
TTITLE4=Romeo
TTITLE5=Rockin' Years
TTITLE6=To Daddy
TTITLE7=Silver And Gold
TTITLE8=He's Alive
TTITLE9=I Will Always Love You
EXTD=
EXTT0=
EXTT1=
EXTT2=
EXTT3=
EXTT4=
EXTT5=Duet with Ricky Van Shelton
EXTT6=
EXTT7=
EXTT8=
EXTT9=
PLAYORDER=
